<svg width="370" height="720" viewBox="0 0 370 720" fill="none" xmlns="http://www.w3.org/2000/svg">
<rect x="40" y="5" width="290" height="167.978" rx="6" stroke="#FAED26" stroke-width="10" stroke-linecap="round"/>
<path d="M167.344 177H202.139L203 213.606L198.946 213.912C189.376 214.636 179.764 214.619 170.197 213.859L167 213.606L167.344 177Z" fill="#FAED26"/>
<path d="M120.955 222.452C120.955 221.129 121.725 219.926 122.927 219.372L131.059 215.625C131.962 215.209 132.899 214.871 133.86 214.616L154.828 209.033C158.177 208.141 161.742 208.61 164.747 210.338C166.103 211.117 167.588 211.649 169.131 211.906L180.927 213.872C183.624 214.321 186.376 214.325 189.075 213.884L201.211 211.898C202.753 211.645 204.245 211.148 205.63 210.424C209.042 208.64 213.019 208.272 216.7 209.399L235 215L246.427 219.262C247.799 219.773 248.708 221.083 248.708 222.546C248.708 223.758 248.082 224.883 247.054 225.523L234.714 233.196C230.752 235.66 226.179 236.966 221.512 236.966H148.269C143.562 236.966 138.95 235.637 134.965 233.132L122.541 225.323C121.554 224.702 120.955 223.618 120.955 222.452Z" fill="#FAED26"/>
<path d="M173 357.484H185L197 357.484L185.387 443L173 357.484Z" fill="#FAED26"/>
<path d="M197 357.516H185L173 357.516L184.613 272L197 357.516Z" fill="#FAED26"/>
<path d="M11.38 494.601C11.38 491.564 13.8424 489.101 16.88 489.101H356.82C359.858 489.101 362.32 491.564 362.32 494.601V602.65C362.32 605.687 359.858 608.15 356.82 608.15H16.88C13.8424 608.15 11.38 605.687 11.38 602.65V494.601Z" stroke="#FAED26" stroke-opacity="0.8" stroke-width="5"/>
<rect x="99.16" y="514.66" width="14.8" height="16.2445" rx="3" fill="#FAED26" fill-opacity="0.8"/>
<rect x="96.94" y="514.66" width="21.46" height="21.4131" rx="3" fill="#FAED26" fill-opacity="0.8"/>
<rect x="213.86" y="514.66" width="14.8" height="16.2445" rx="3" fill="#FAED26" fill-opacity="0.8"/>
<rect x="211.64" y="514.66" width="21.46" height="21.4131" rx="3" fill="#FAED26" fill-opacity="0.8"/>
<rect x="190.92" y="514.66" width="14.8" height="16.2445" rx="3" fill="#FAED26" fill-opacity="0.8"/>
<rect x="188.7" y="514.66" width="21.46" height="21.4131" rx="3" fill="#FAED26" fill-opacity="0.8"/>
<rect x="230.14" y="560.44" width="14.8" height="16.2445" rx="3" fill="#FAED26" fill-opacity="0.8"/>
<rect x="227.92" y="560.44" width="21.46" height="21.4131" rx="3" fill="#FAED26" fill-opacity="0.8"/>
<rect x="138.38" y="560.44" width="14.8" height="16.2445" rx="3" fill="#FAED26" fill-opacity="0.8"/>
<rect x="136.16" y="560.44" width="21.46" height="21.4131" rx="3" fill="#FAED26" fill-opacity="0.8"/>
<rect x="276.02" y="560.44" width="14.8" height="16.2445" rx="3" fill="#FAED26" fill-opacity="0.8"/>
<rect x="273.8" y="560.44" width="21.46" height="21.4131" rx="3" fill="#FAED26" fill-opacity="0.8"/>
<rect x="303.4" y="560.44" width="53.28" height="16.2445" rx="3" fill="#FAED26" fill-opacity="0.8"/>
<rect x="296.74" y="560.44" width="61.42" height="21.4131" rx="3" fill="#FAED26" fill-opacity="0.8"/>
<rect x="293.04" y="491.77" width="14.8" height="16.2445" rx="3" fill="#FAED26" fill-opacity="0.8"/>
<rect x="290.82" y="491.77" width="21.46" height="21.4131" rx="3" fill="#FAED26" fill-opacity="0.8"/>
<rect x="319.583" y="491.77" width="37.1213" height="16.2445" rx="3" fill="#FAED26" fill-opacity="0.8"/>
<rect x="313.76" y="491.77" width="44.4" height="21.4131" rx="3" fill="#FAED26" fill-opacity="0.8"/>
<rect x="201.28" y="491.77" width="14.8" height="16.2445" rx="3" fill="#FAED26" fill-opacity="0.8"/>
<rect x="199.06" y="491.77" width="21.46" height="21.4131" rx="3" fill="#FAED26" fill-opacity="0.8"/>
<rect x="109.52" y="491.77" width="14.8" height="16.2445" rx="3" fill="#FAED26" fill-opacity="0.8"/>
<rect x="107.3" y="491.77" width="21.46" height="21.4131" rx="3" fill="#FAED26" fill-opacity="0.8"/>
<rect x="63.64" y="491.77" width="14.8" height="16.2445" rx="3" fill="#FAED26" fill-opacity="0.8"/>
<rect x="61.42" y="491.77" width="21.46" height="21.4131" rx="3" fill="#FAED26" fill-opacity="0.8"/>
<rect x="40.7" y="491.77" width="14.8" height="16.2445" rx="3" fill="#FAED26" fill-opacity="0.8"/>
<rect x="38.48" y="491.77" width="21.46" height="21.4131" rx="3" fill="#FAED26" fill-opacity="0.8"/>
<rect x="17.76" y="491.77" width="14.8" height="16.2445" rx="3" fill="#FAED26" fill-opacity="0.8"/>
<rect x="15.54" y="491.77" width="21.46" height="21.4131" rx="3" fill="#FAED26" fill-opacity="0.8"/>
<rect x="86.58" y="491.77" width="14.8" height="16.2445" rx="3" fill="#FAED26" fill-opacity="0.8"/>
<rect x="84.36" y="491.77" width="21.46" height="21.4131" rx="3" fill="#FAED26" fill-opacity="0.8"/>
<rect x="132.46" y="491.77" width="14.8" height="16.2445" rx="3" fill="#FAED26" fill-opacity="0.8"/>
<rect x="130.24" y="491.77" width="21.46" height="21.4131" rx="3" fill="#FAED26" fill-opacity="0.8"/>
<rect x="155.4" y="491.77" width="14.8" height="16.2445" rx="3" fill="#FAED26" fill-opacity="0.8"/>
<rect x="153.18" y="491.77" width="21.46" height="21.4131" rx="3" fill="#FAED26" fill-opacity="0.8"/>
<rect x="178.34" y="491.77" width="14.8" height="16.2445" rx="3" fill="#FAED26" fill-opacity="0.8"/>
<rect x="176.12" y="491.77" width="21.46" height="21.4131" rx="3" fill="#FAED26" fill-opacity="0.8"/>
<rect x="224.22" y="491.77" width="14.8" height="16.2445" rx="3" fill="#FAED26" fill-opacity="0.8"/>
<rect x="222" y="491.77" width="21.46" height="21.4131" rx="3" fill="#FAED26" fill-opacity="0.8"/>
<rect x="247.16" y="491.77" width="14.8" height="16.2445" rx="3" fill="#FAED26" fill-opacity="0.8"/>
<rect x="244.94" y="491.77" width="21.46" height="21.4131" rx="3" fill="#FAED26" fill-opacity="0.8"/>
<rect x="270.1" y="491.77" width="14.8" height="16.2445" rx="3" fill="#FAED26" fill-opacity="0.8"/>
<rect x="267.88" y="491.77" width="21.46" height="21.4131" rx="3" fill="#FAED26" fill-opacity="0.8"/>
<rect x="305.62" y="514.66" width="14.8" height="16.2445" rx="3" fill="#FAED26" fill-opacity="0.8"/>
<rect x="303.4" y="514.66" width="21.46" height="21.4131" rx="3" fill="#FAED26" fill-opacity="0.8"/>
<rect x="330.04" y="515.398" width="27.38" height="16.2445" rx="3" fill="#FAED26" fill-opacity="0.8"/>
<rect x="326.34" y="514.66" width="31.82" height="21.4131" rx="3" fill="#FAED26" fill-opacity="0.8"/>
<rect x="282.68" y="514.66" width="14.8" height="16.2445" rx="3" fill="#FAED26" fill-opacity="0.8"/>
<rect x="280.46" y="514.66" width="21.46" height="21.4131" rx="3" fill="#FAED26" fill-opacity="0.8"/>
<rect x="288.6" y="537.55" width="14.8" height="16.2445" rx="3" fill="#FAED26" fill-opacity="0.8"/>
<rect x="286.38" y="537.55" width="21.46" height="21.4131" rx="3" fill="#FAED26" fill-opacity="0.8"/>
<rect x="314.423" y="537.55" width="43.0084" height="16.2445" rx="3" fill="#FAED26" fill-opacity="0.8"/>
<rect x="309.32" y="537.55" width="48.84" height="21.4131" rx="3" fill="#FAED26" fill-opacity="0.8"/>
<rect x="69.56" y="560.44" width="14.8" height="16.2445" rx="3" fill="#FAED26" fill-opacity="0.8"/>
<rect x="67.34" y="560.44" width="21.46" height="21.4131" rx="3" fill="#FAED26" fill-opacity="0.8"/>
<rect x="74.74" y="584.806" width="18.3724" height="16.2445" rx="3" fill="#FAED26" fill-opacity="0.8"/>
<rect x="71.78" y="583.329" width="26.64" height="21.4131" rx="3" fill="#FAED26" fill-opacity="0.8"/>
<rect x="46.62" y="584.806" width="18.3724" height="16.2445" rx="3" fill="#FAED26" fill-opacity="0.8"/>
<rect x="43.66" y="583.329" width="26.64" height="21.4131" rx="3" fill="#FAED26" fill-opacity="0.8"/>
<rect x="18.5" y="584.806" width="18.3724" height="16.2445" rx="3" fill="#FAED26" fill-opacity="0.8"/>
<rect x="15.54" y="583.329" width="26.64" height="21.4131" rx="3" fill="#FAED26" fill-opacity="0.8"/>
<rect x="249.38" y="584.068" width="18.3724" height="16.2445" rx="3" fill="#FAED26" fill-opacity="0.8"/>
<rect x="243.46" y="583.329" width="26.64" height="21.4131" rx="3" fill="#FAED26" fill-opacity="0.8"/>
<rect x="277.5" y="584.068" width="18.3724" height="16.2445" rx="3" fill="#FAED26" fill-opacity="0.8"/>
<rect x="271.58" y="583.329" width="26.64" height="21.4131" rx="3" fill="#FAED26" fill-opacity="0.8"/>
<rect x="305.62" y="584.068" width="18.3724" height="16.2445" rx="3" fill="#FAED26" fill-opacity="0.8"/>
<rect x="299.7" y="583.329" width="26.64" height="21.4131" rx="3" fill="#FAED26" fill-opacity="0.8"/>
<rect x="334.562" y="584.068" width="20.9241" height="16.2445" rx="3" fill="#FAED26" fill-opacity="0.8"/>
<rect x="327.82" y="583.329" width="30.34" height="21.4131" rx="3" fill="#FAED26" fill-opacity="0.8"/>
<rect x="20.72" y="560.44" width="39.96" height="16.2445" rx="3" fill="#FAED26" fill-opacity="0.8"/>
<rect x="15.54" y="560.44" width="50.32" height="21.4131" rx="3" fill="#FAED26" fill-opacity="0.8"/>
<rect x="92.5" y="560.44" width="14.8" height="16.2445" rx="3" fill="#FAED26" fill-opacity="0.8"/>
<rect x="90.28" y="560.44" width="21.46" height="21.4131" rx="3" fill="#FAED26" fill-opacity="0.8"/>
<rect x="115.44" y="560.44" width="14.8" height="16.2445" rx="3" fill="#FAED26" fill-opacity="0.8"/>
<rect x="113.22" y="560.44" width="21.46" height="21.4131" rx="3" fill="#FAED26" fill-opacity="0.8"/>
<rect x="161.32" y="560.44" width="14.8" height="16.2445" rx="3" fill="#FAED26" fill-opacity="0.8"/>
<rect x="159.1" y="560.44" width="21.46" height="21.4131" rx="3" fill="#FAED26" fill-opacity="0.8"/>
<rect x="102.12" y="584.806" width="136.16" height="16.2445" rx="3" fill="#FAED26" fill-opacity="0.8"/>
<rect x="99.9" y="583.329" width="142.08" height="21.4131" rx="3" fill="#FAED26" fill-opacity="0.8"/>
<rect x="184.26" y="560.44" width="14.8" height="16.2445" rx="3" fill="#FAED26" fill-opacity="0.8"/>
<rect x="182.04" y="560.44" width="21.46" height="21.4131" rx="3" fill="#FAED26" fill-opacity="0.8"/>
<rect x="207.2" y="560.44" width="14.8" height="16.2445" rx="3" fill="#FAED26" fill-opacity="0.8"/>
<rect x="204.98" y="560.44" width="21.46" height="21.4131" rx="3" fill="#FAED26" fill-opacity="0.8"/>
<rect x="253.08" y="560.44" width="14.8" height="16.2445" rx="3" fill="#FAED26" fill-opacity="0.8"/>
<rect x="250.86" y="560.44" width="21.46" height="21.4131" rx="3" fill="#FAED26" fill-opacity="0.8"/>
<rect x="265.66" y="537.55" width="14.8" height="16.2445" rx="3" fill="#FAED26" fill-opacity="0.8"/>
<rect x="263.44" y="537.55" width="21.46" height="21.4131" rx="3" fill="#FAED26" fill-opacity="0.8"/>
<rect x="242.72" y="537.55" width="14.8" height="16.2445" rx="3" fill="#FAED26" fill-opacity="0.8"/>
<rect x="240.5" y="537.55" width="21.46" height="21.4131" rx="3" fill="#FAED26" fill-opacity="0.8"/>
<rect x="259.74" y="514.66" width="14.8" height="16.2445" rx="3" fill="#FAED26" fill-opacity="0.8"/>
<rect x="257.52" y="514.66" width="21.46" height="21.4131" rx="3" fill="#FAED26" fill-opacity="0.8"/>
<rect x="236.8" y="514.66" width="14.8" height="16.2445" rx="3" fill="#FAED26" fill-opacity="0.8"/>
<rect x="234.58" y="514.66" width="21.46" height="21.4131" rx="3" fill="#FAED26" fill-opacity="0.8"/>
<rect x="167.98" y="514.66" width="14.8" height="16.2445" rx="3" fill="#FAED26" fill-opacity="0.8"/>
<rect x="165.76" y="514.66" width="21.46" height="21.4131" rx="3" fill="#FAED26" fill-opacity="0.8"/>
<rect x="145.04" y="514.66" width="14.8" height="16.2445" rx="3" fill="#FAED26" fill-opacity="0.8"/>
<rect x="142.82" y="514.66" width="21.46" height="21.4131" rx="3" fill="#FAED26" fill-opacity="0.8"/>
<rect x="122.1" y="514.66" width="14.8" height="16.2445" rx="3" fill="#FAED26" fill-opacity="0.8"/>
<rect x="119.88" y="514.66" width="21.46" height="21.4131" rx="3" fill="#FAED26" fill-opacity="0.8"/>
<rect x="76.22" y="514.66" width="14.8" height="16.2445" rx="3" fill="#FAED26" fill-opacity="0.8"/>
<rect x="74" y="514.66" width="21.46" height="21.4131" rx="3" fill="#FAED26" fill-opacity="0.8"/>
<rect x="53.28" y="514.66" width="14.8" height="16.2445" rx="3" fill="#FAED26" fill-opacity="0.8"/>
<rect x="51.06" y="514.66" width="21.46" height="21.4131" rx="3" fill="#FAED26" fill-opacity="0.8"/>
<rect x="19.0614" y="514.66" width="23.4759" height="16.2445" rx="3" fill="#FAED26" fill-opacity="0.8"/>
<rect x="15.54" y="514.66" width="34.04" height="21.4131" rx="3" fill="#FAED26" fill-opacity="0.8"/>
<rect x="219.78" y="537.55" width="14.8" height="16.2445" rx="3" fill="#FAED26" fill-opacity="0.8"/>
<rect x="217.56" y="537.55" width="21.46" height="21.4131" rx="3" fill="#FAED26" fill-opacity="0.8"/>
<rect x="196.84" y="537.55" width="14.8" height="16.2445" rx="3" fill="#FAED26" fill-opacity="0.8"/>
<rect x="194.62" y="537.55" width="21.46" height="21.4131" rx="3" fill="#FAED26" fill-opacity="0.8"/>
<rect x="173.9" y="537.55" width="14.8" height="16.2445" rx="3" fill="#FAED26" fill-opacity="0.8"/>
<rect x="171.68" y="537.55" width="21.46" height="21.4131" rx="3" fill="#FAED26" fill-opacity="0.8"/>
<rect x="150.96" y="537.55" width="14.8" height="16.2445" rx="3" fill="#FAED26" fill-opacity="0.8"/>
<rect x="148.74" y="537.55" width="21.46" height="21.4131" rx="3" fill="#FAED26" fill-opacity="0.8"/>
<rect x="128.02" y="537.55" width="14.8" height="16.2445" rx="3" fill="#FAED26" fill-opacity="0.8"/>
<rect x="125.8" y="537.55" width="21.46" height="21.4131" rx="3" fill="#FAED26" fill-opacity="0.8"/>
<rect x="105.08" y="537.55" width="14.8" height="16.2445" rx="3" fill="#FAED26" fill-opacity="0.8"/>
<rect x="102.86" y="537.55" width="21.46" height="21.4131" rx="3" fill="#FAED26" fill-opacity="0.8"/>
<rect x="82.14" y="537.55" width="14.8" height="16.2445" rx="3" fill="#FAED26" fill-opacity="0.8"/>
<rect x="79.92" y="537.55" width="21.46" height="21.4131" rx="3" fill="#FAED26" fill-opacity="0.8"/>
<rect x="59.2" y="537.55" width="14.8" height="16.2445" rx="3" fill="#FAED26" fill-opacity="0.8"/>
<rect x="56.98" y="537.55" width="21.46" height="21.4131" rx="3" fill="#FAED26" fill-opacity="0.8"/>
<rect x="19.98" y="537.55" width="28.86" height="16.2445" rx="3" fill="#FAED26" fill-opacity="0.8"/>
<rect x="15.54" y="537.55" width="39.96" height="21.4131" rx="3" fill="#FAED26" fill-opacity="0.8"/>
<circle cx="185" cy="89" r="71.5" stroke="url(#paint0_linear)" stroke-width="9"/>
<mask id="mask0" mask-type="alpha" maskUnits="userSpaceOnUse" x="156" y="72" width="59" height="35">
<path d="M214.672 82.35C214.672 85.25 213.672 87.6667 211.672 89.6C209.706 91.5 206.689 92.45 202.622 92.45H195.922V107H191.372V72.15H202.622C206.556 72.15 209.539 73.1 211.572 75C213.639 76.9 214.672 79.35 214.672 82.35ZM202.622 88.7C205.156 88.7 207.022 88.15 208.222 87.05C209.422 85.95 210.022 84.3833 210.022 82.35C210.022 78.05 207.556 75.9 202.622 75.9H195.922V88.7H202.622Z" fill="black"/>
<path d="M156.328 82.35C156.328 85.25 157.328 87.6667 159.328 89.6C161.294 91.5 164.311 92.45 168.378 92.45H175.078V107H179.628V72.15H168.378C164.444 72.15 161.461 73.1 159.428 75C157.361 76.9 156.328 79.35 156.328 82.35ZM168.378 88.7C165.844 88.7 163.978 88.15 162.778 87.05C161.578 85.95 160.978 84.3833 160.978 82.35C160.978 78.05 163.444 75.9 168.378 75.9H175.078V88.7H168.378Z" fill="black"/>
</mask>
<g mask="url(#mask0)">
<rect x="118" y="65" width="135" height="51" fill="url(#paint1_linear)"/>
</g>
<defs>
<linearGradient id="paint0_linear" x1="185" y1="13" x2="185" y2="165" gradientUnits="userSpaceOnUse">
<stop stop-color="#FAED26"/>
<stop offset="1" stop-color="#D74411"/>
</linearGradient>
<linearGradient id="paint1_linear" x1="185.5" y1="65" x2="185.5" y2="116" gradientUnits="userSpaceOnUse">
<stop stop-color="#FAED26"/>
<stop offset="1" stop-color="#D74411"/>
</linearGradient>
</defs>
</svg>
