<svg width="100" height="100" viewBox="0 0 100 100" fill="none" xmlns="http://www.w3.org/2000/svg">
<path d="M99.8316 29.4137C99.8309 27.7368 99.4273 26.255 98.6113 24.9832C97.8098 23.7327 96.6094 22.6845 94.9992 21.8558C81.7082 15.0443 68.4043 8.25367 55.1176 1.43525C51.5355 -0.402758 48.0625 -0.33575 44.507 1.52865C39.2168 4.30163 12.7305 17.7888 4.83789 21.852C1.5875 23.5244 0.00585938 26.0838 0.00507813 29.4106C0 43.1089 0.00507813 56.8068 0 70.5054C0.00078125 72.1455 0.387109 73.5985 1.16719 74.8512C1.96914 76.1396 3.18633 77.2166 4.83359 78.064C12.7266 82.1272 39.2164 95.6133 44.5055 98.387C48.0625 100.252 51.5355 100.319 55.1188 98.4804C68.4059 91.6617 81.7105 84.8714 95.0035 78.0599C96.6508 77.2127 97.868 76.1351 98.6699 74.8477C99.4488 73.595 99.8359 72.1421 99.8367 70.5016C99.8367 70.5016 99.8367 43.1123 99.8316 29.4137Z" fill="black"/>
<path d="M50.0711 49.8246L1.16716 74.8512C1.96911 76.1397 3.1863 77.2166 4.83357 78.0641C12.7265 82.1273 39.2164 95.6134 44.5055 98.3871C48.0625 100.253 51.5355 100.319 55.1187 98.4805C68.4058 91.6617 81.7105 84.8714 95.0035 78.06C96.6508 77.2128 97.868 76.1351 98.6699 74.8478L50.0711 49.8246Z" fill="black"/>
<path d="M35.5863 57.2377C38.432 61.6533 43.7816 64.6314 49.9183 64.6314C56.0929 64.6314 61.473 61.6154 64.3043 57.1527L50.0711 49.8246L35.5863 57.2377Z" fill="black"/>
<path d="M99.8316 29.4137C99.8308 27.7368 99.4273 26.255 98.6113 24.9833L50.0711 49.8245L98.6699 74.8477C99.4488 73.5951 99.8359 72.1421 99.8367 70.5016C99.8367 70.5016 99.8367 43.1124 99.8316 29.4137Z" fill="black"/>
<path d="M97.1594 51.6133H93.3617V54.9893H89.5633V51.6133H85.766V48.2383H89.5633V44.8629H93.3617V48.2383H97.1594V51.6133ZM83.3019 51.6133H79.5047V54.9893H75.707V51.6133H71.9094V48.2383H75.707V44.8629H79.5047V48.2383H83.3019V51.6133Z" fill="white"/>
<path d="M64.3043 57.1527C61.4731 61.6154 56.093 64.6314 49.9184 64.6314C43.7816 64.6314 38.432 61.6533 35.5863 57.2377C34.1568 55.0221 33.406 52.512 33.409 49.9579C33.409 41.8542 40.8008 35.2847 49.9184 35.2847C56.0156 35.2847 61.3371 38.2257 64.1969 42.5961L78.627 35.2108C72.8914 26.411 62.1832 20.4907 49.9184 20.4907C31.6074 20.4907 16.7641 33.6838 16.7641 49.9579C16.7641 55.297 18.3621 60.3037 21.1551 64.6224C26.8762 73.4687 37.6148 79.4254 49.9184 79.4254C62.2445 79.4254 73 73.4448 78.7129 64.5724L64.3043 57.1527Z" fill="white"/>
</svg>
