<svg width="50" height="50" viewBox="0 0 50 50" fill="none" xmlns="http://www.w3.org/2000/svg">
<path d="M25 2.08333C18.9864 2.02222 13.1945 4.35126 8.89734 8.55859C4.60016 12.7659 2.14927 18.5073 2.08331 24.5208C2.10648 29.2733 3.63528 33.8961 6.45011 37.7253C9.26494 41.5545 13.221 44.3931 17.75 45.8333C18.8958 46.0417 19.3125 45.3542 19.3125 44.75V40.9375C12.9375 42.2917 11.5833 37.9375 11.5833 37.9375C11.1589 36.5706 10.2567 35.4022 9.04165 34.6458C6.95831 33.2708 9.20831 33.2917 9.20831 33.2917C9.92842 33.3879 10.6174 33.646 11.2235 34.0465C11.8297 34.447 12.3373 34.9795 12.7083 35.6042C13.3548 36.7252 14.4157 37.5477 15.6625 37.8945C16.9093 38.2412 18.2425 38.0846 19.375 37.4583C19.4915 36.3175 20.0081 35.2547 20.8333 34.4583C15.75 33.8958 10.4166 31.9792 10.4166 23.375C10.3712 21.1306 11.2005 18.9565 12.7291 17.3125C12.033 15.3856 12.1152 13.2631 12.9583 11.3958C12.9583 11.3958 14.8958 10.7917 19.2083 13.6875C22.9623 12.6872 26.9127 12.6872 30.6666 13.6875C35.0416 10.7917 36.9166 11.3958 36.9166 11.3958C37.7598 13.2631 37.842 15.3856 37.1458 17.3125C38.71 18.9263 39.5842 21.0859 39.5833 23.3333C39.5833 31.9583 34.2083 33.8542 29.1666 34.4167C29.7187 34.9526 30.1451 35.6043 30.4153 36.3247C30.6855 37.0452 30.7926 37.8165 30.7291 38.5833V44.7292C30.7291 45.4583 31.1458 46.0417 32.2916 45.8125C36.8078 44.3633 40.7505 41.5241 43.5566 37.7003C46.3628 33.8765 47.8887 29.2637 47.9166 24.5208C47.8507 18.5073 45.3998 12.7659 41.1026 8.55859C36.8054 4.35126 31.0136 2.02222 25 2.08333Z" fill="black"/>
</svg>
