<svg width="120" height="100" viewBox="0 0 120 100" fill="none" xmlns="http://www.w3.org/2000/svg">
<path d="M22.3 41.1666C22.2 41.1666 22.1 40.9999 22.2 40.8333L22.9 39.1666C23 38.9999 23.1 38.8333 23.3 38.8333H35.9C36 38.8333 36.1 38.9999 36 39.1666L35.4 40.6666C35.3 40.8333 35.2 40.9999 35 40.9999L22.3 41.1666ZM17 46.4999C16.9 46.4999 16.8 46.3333 16.9 46.1666L17.6 44.4999C17.7 44.3333 17.8 44.1666 18 44.1666H34.1C34.2 44.1666 34.3 44.3333 34.3 44.4999L34 46.1666C34 46.3333 33.8 46.4999 33.7 46.4999H17ZM25.5 51.9999C25.4 51.9999 25.3 51.8333 25.4 51.6666L25.9 50.1666C26 49.9999 26.1 49.8333 26.3 49.8333H33.3C33.4 49.8333 33.5 49.9999 33.5 50.1666L33.4 51.4999C33.4 51.6666 33.3 51.8333 33.2 51.8333L25.5 51.9999ZM62.1 39.9999L56.2 42.4999C55.7 42.6666 55.6 42.8333 55.2 41.8333C54.7 40.8333 54.3 40.1666 53.5 39.6666C51.3 37.8333 49.1 38.3333 47.1 40.4999C44.7 42.9999 43.5 46.8333 43.5 51.6666C43.5 56.3333 45.5 60.1666 48.3 60.8333C50.7 61.3333 52.7 59.9999 54.3 56.9999C54.6 56.3333 54.9 55.6666 55.3 54.8333H48.5C47.8 54.8333 47.6 53.9999 47.8 52.9999C48.3 51.1666 49.1 48.1666 49.6 46.6666C49.7 46.3333 50 45.6666 50.5 45.6666H63.3C63.2 47.3333 63.2 48.8333 63.1 50.4999C62.7 54.6666 61.8 58.6666 60.2 61.9999C57.7 67.4999 54.4 70.9999 50.2 71.9999C46.7 72.8333 43.5 71.6666 40.7 68.1666C38.1 64.8333 36.6 60.4999 36.2 55.1666C35.7 48.8333 36.9 42.9999 39.2 37.9999C41.7 32.4999 45 28.9999 49.1 27.8333C52.4 26.8333 55.6 27.4999 58.4 30.6666C60.3 32.6666 61.6 35.4999 62.5 38.9999C62.6 39.6666 62.5 39.8333 62.1 39.9999Z" fill="black"/>
<path d="M73.7 72.5C70.5 72.3333 67.6 70.8334 65.1 67.3334C63 64.3334 61.7 60.5 61.3 56C60.7 49.3333 61.8 43.5 64.2 38.3333C66.8 32.6667 69.9 29.8333 74.1 28.5C77.7 27.5 81.1 28 84.1 31.5C86.9 34.6667 88.6 39 89.1 44.6667C89.7 52.6667 88.3 59 85.1 64.5C82.8 68.5 79.9 70.8334 76.7 72C75.6 72.3334 74.6 72.3333 73.7 72.5ZM82.1 48.8333C82.1 48 82.1 47.5 82 46.8333C81.4 41 78.2 37.6667 74.8 39C71.5 40.1667 69.4 43.6667 68.6 49.1667C68 53.6667 69.3 58.3333 71.8 60.3334C73.7 61.6667 75.7 61.5 77.5 60C80.4 57.6667 81.9 53.8333 82.1 48.8333Z" fill="black"/>
</svg>
