<svg width="100" height="100" viewBox="0 0 100 100" fill="none" xmlns="http://www.w3.org/2000/svg">
<g clip-path="url(#clip0)">
<path d="M9.27822 89.8851L-0.00402832 0.00512695L99.9947 0.0394317L90.7905 89.8165L49.9173 99.9708L9.27822 89.8851ZM83.2632 84.9794L91.0245 7.99826H50.0733L50.3853 92.9039L83.2632 84.9794ZM46.2512 19.2847H36.306L36.189 65.3568L16.8834 60.7255L16.9224 71.2573L46.2512 78.2212V19.2847Z" fill="black"/>
<path opacity="0.986" d="M16.9224 71.2571L16.8834 60.7254C16.8834 60.7254 29.2078 63.7786 36.1889 65.3566L36.3059 19.319H46.2512V78.2211L16.9224 71.2571Z" fill="#EBEBEB" fill-opacity="0.9216"/>
<path d="M50.0732 7.96399H91.0243L83.2631 84.945L50.0732 92.8695V7.96399ZM81.1571 72.0462L83.8481 43.2641L63.9576 45.2195V29.8507L85.1742 29.7821L86.0322 19.2847L54.0123 19.4219L54.4414 57.638L73.7859 54.7221L73.5129 63.2298L54.0123 67.7924L54.2074 78.2212L81.1571 72.0462Z" fill="black"/>
</g>
<defs>
<clipPath id="clip0">
<rect width="100" height="100" fill="white"/>
</clipPath>
</defs>
</svg>
