<svg width="100" height="100" viewBox="0 0 100 100" fill="none" xmlns="http://www.w3.org/2000/svg">
<path d="M49.5048 18.5287C44.8841 21.7786 39.6471 25.4622 36.8412 31.5562C31.9674 42.1877 46.8143 53.785 47.4487 54.2736C47.5962 54.3873 47.7726 54.4437 47.9487 54.4437C48.1356 54.4437 48.3228 54.3798 48.4749 54.2526C48.7697 54.006 48.8533 53.5873 48.6762 53.2463C48.6225 53.1427 43.2933 42.7913 43.4913 35.3648C43.5615 32.7785 47.1812 29.8444 51.0133 26.7379C54.5231 23.8927 58.5015 20.6678 60.8293 16.8953C65.9395 8.5914 60.2598 0.426183 60.2018 0.344872C59.9762 0.0281519 59.5598 -0.0869297 59.2038 0.0694633C58.848 0.226184 58.651 0.611101 58.7323 0.9911C58.7438 1.04487 59.8483 6.44453 56.7749 12.0075C55.5084 14.3061 52.7264 16.2632 49.5048 18.5287Z" fill="black"/>
<path d="M68.9719 22.1907C69.2978 21.9451 69.3935 21.4973 69.1962 21.1399C68.9988 20.7825 68.569 20.6248 68.1873 20.7697C67.4024 21.0681 48.9654 28.1746 48.9654 36.7618C48.9654 42.6808 51.4939 45.808 53.3401 48.0916C54.0644 48.987 54.6897 49.7605 54.8956 50.4208C55.4756 52.3237 54.1015 55.7631 53.5238 56.9276C53.3572 57.2627 53.4388 57.6683 53.7221 57.9129C53.8752 58.045 54.0664 58.1119 54.2578 58.1119C54.4208 58.1119 54.5844 58.0634 54.7257 57.965C55.0428 57.7444 62.4732 52.4909 61.1405 46.1615C60.6441 43.7559 59.4618 41.9979 58.4185 40.4467C56.8024 38.0438 55.6352 36.3077 57.406 33.1015C59.4814 29.3625 68.8771 22.2619 68.9719 22.1907Z" fill="black"/>
<path d="M20.9803 58.2486C20.6642 59.1945 20.8134 60.1339 21.4114 60.9644C23.4101 63.7388 30.4894 65.267 41.3464 65.267C41.3471 65.267 41.3474 65.267 41.3477 65.267C42.8189 65.267 44.372 65.2381 45.9628 65.1811C63.3211 64.5594 69.7594 59.1519 70.025 58.9221C70.3145 58.6716 70.3919 58.2542 70.2119 57.9165C70.0319 57.5791 69.6437 57.4096 69.2729 57.5116C63.1598 59.1808 51.7441 59.7732 43.8261 59.7732C34.9661 59.7732 30.454 59.1352 29.3494 58.664C29.9163 57.8857 33.4123 56.4958 37.7445 55.6437C38.1586 55.5624 38.4431 55.1801 38.4022 54.7601C38.3612 54.3401 38.0084 54.0198 37.5864 54.0198C35.0468 54.0201 22.3114 54.224 20.9803 58.2486Z" fill="black"/>
<path d="M79.0646 52.6796C75.4843 52.6796 72.0892 54.4737 71.9463 54.5501C71.6152 54.7274 71.4473 55.1071 71.5381 55.4717C71.6293 55.8359 71.9568 56.092 72.3325 56.0923C72.4086 56.0927 79.9696 56.1543 80.6545 60.4743C81.261 64.2012 73.5004 70.2398 70.4588 72.2523C70.1302 72.4697 70.0027 72.89 70.1552 73.2529C70.2847 73.5621 70.586 73.7556 70.9106 73.7556C70.9673 73.7556 71.0247 73.7497 71.0817 73.7372C71.8037 73.5831 88.739 69.8513 86.9486 59.9907C85.8561 53.9478 82.0581 52.6796 79.0646 52.6796Z" fill="black"/>
<path d="M67.4506 71.0457C67.5096 70.7296 67.3781 70.4083 67.1152 70.224L63.0546 67.3798C62.8565 67.2411 62.6064 67.1975 62.3739 67.2591C62.3316 67.2703 58.0851 68.3863 51.9198 69.0709C49.473 69.3453 46.7323 69.4902 43.9936 69.4902C37.83 69.4902 33.7999 68.766 33.213 68.2348C33.1353 68.0857 33.1599 68.0178 33.1737 67.9801C33.2802 67.6834 33.8517 67.3309 34.2202 67.1916C34.6271 67.0411 34.8464 66.5991 34.7199 66.184C34.5937 65.7689 34.1658 65.5244 33.7435 65.626C29.6701 66.6089 27.6783 67.9837 27.8232 69.7116C28.0806 72.7748 35.1766 74.3473 41.1756 74.7634C42.0382 74.8224 42.9713 74.8525 43.9481 74.8525C43.9487 74.8525 43.949 74.8525 43.9497 74.8525C53.9251 74.8525 66.7132 71.7227 66.8411 71.6909C67.1532 71.6139 67.3913 71.3617 67.4506 71.0457Z" fill="black"/>
<path d="M36.8363 77.6211C37.1438 77.4208 37.2802 77.0408 37.171 76.6906C37.0622 76.3404 36.7346 76.1106 36.3668 76.1152C35.8209 76.1296 31.0251 76.346 30.6894 79.3994C30.5878 80.3119 30.8491 81.1453 31.4665 81.8768C33.1884 83.9175 37.8363 85.1302 45.6736 85.585C46.6008 85.6404 47.5425 85.6683 48.4733 85.6683C58.4372 85.6683 65.1477 82.5486 65.4286 82.4158C65.7011 82.287 65.8808 82.0194 65.8968 81.7184C65.9129 81.4178 65.7627 81.1322 65.5057 80.9752L60.3739 77.8424C60.1959 77.7339 59.9828 77.6978 59.7795 77.7394C59.747 77.7463 56.4887 78.4221 51.5713 79.0899C50.6408 79.2162 49.4756 79.2804 48.1084 79.2804C43.1963 79.2804 37.7327 78.4778 36.6848 77.9526C36.6697 77.8539 36.6891 77.7293 36.8363 77.6211Z" fill="black"/>
<path d="M43.8297 95.0875C66.6525 95.0681 78.902 91.0095 81.2617 88.4554C82.0971 87.5514 82.1872 86.696 82.1161 86.1373C81.9407 84.7623 80.6886 83.9206 80.5463 83.8291C80.2037 83.6088 79.744 83.6665 79.4768 83.9747C79.2102 84.2832 79.204 84.7334 79.4715 85.0413C79.6155 85.2265 79.6987 85.5363 79.2777 85.9577C78.3345 86.8386 68.8198 89.5131 52.9778 90.3163C50.8077 90.4295 48.5316 90.4865 46.213 90.4868C32.0287 90.4868 21.6481 88.5442 20.2855 87.4118C20.8111 86.6573 24.4825 85.4514 28.3874 84.7698C28.8274 84.6931 29.1248 84.2783 29.0566 83.837C28.9884 83.3957 28.5815 83.0918 28.137 83.1498C28.0268 83.1646 27.6533 83.1875 27.2202 83.2137C20.7773 83.6072 13.3318 84.4842 12.9432 87.8036C12.8252 88.8154 13.1259 89.7334 13.837 90.5327C15.577 92.4878 20.5786 95.0871 43.8287 95.0871C43.8294 95.0875 43.8294 95.0875 43.8297 95.0875Z" fill="black"/>
<path d="M85.7446 89.1751C85.422 89.0259 85.041 89.1013 84.8 89.361C84.7663 89.3971 81.3351 92.9853 71.0181 95.0921C67.0683 95.8836 59.6542 96.2849 48.9818 96.2849C38.2894 96.2849 28.1153 95.8643 28.0137 95.86C27.5888 95.8393 27.2252 96.1482 27.1675 96.5666C27.1094 96.9849 27.3789 97.3787 27.7894 97.4764C27.8953 97.5016 38.5579 99.9997 53.1369 99.9997C60.1293 99.9997 66.9336 99.4315 73.3611 98.3108C85.3456 96.2098 86.1846 90.2672 86.2145 90.0154C86.2561 89.6633 86.0666 89.3243 85.7446 89.1751Z" fill="black"/>
</svg>
