<svg width="142" height="142" viewBox="0 0 142 142" fill="none" xmlns="http://www.w3.org/2000/svg">
<path d="M71 93.1875C89.3513 93.1875 104.281 74.2771 104.281 51.0312C104.281 27.7854 89.3513 8.875 71 8.875C52.6487 8.875 37.7188 27.7854 37.7188 51.0312C37.7188 74.2771 52.6487 93.1875 71 93.1875ZM71 17.75C84.2304 17.75 95.4062 32.9906 95.4062 51.0312C95.4062 69.0719 84.2304 84.3125 71 84.3125C57.7696 84.3125 46.5938 69.0719 46.5938 51.0312C46.5938 32.9906 57.7696 17.75 71 17.75Z" fill="#ED1EB3"/>
<path d="M9.10352 100.658L0.228519 127.283C-0.221887 128.636 0.00442508 130.123 0.838675 131.281C1.67071 132.439 3.01083 133.125 4.43749 133.125H137.562C138.989 133.125 140.329 132.439 141.161 131.281C141.996 130.125 142.224 128.639 141.771 127.283L132.896 100.658C132.433 99.269 131.314 98.1996 129.906 97.7958L98.8431 88.9208C97.7737 88.6124 96.6332 88.7211 95.6392 89.2181L71 101.539L46.3608 89.2181C45.3668 88.7211 44.2263 88.6146 43.1569 88.9208L12.0944 97.7958C10.6833 98.1996 9.56724 99.269 9.10352 100.658ZM43.9357 97.9289L69.0164 110.469C70.2634 111.093 71.7388 111.093 72.9858 110.469L98.0665 97.9289L125.22 105.686L131.408 124.25H10.5923L16.7804 105.686L43.9357 97.9289Z" fill="#ED1EB3"/>
</svg>
