<svg width="100" height="100" viewBox="0 0 100 100" fill="none" xmlns="http://www.w3.org/2000/svg">
<path d="M49.5765 0.0281982C24.2514 0.0282001 25.8329 11.0538 25.8329 11.0538L25.8611 22.4761H50.0282V25.9057H16.262C16.262 25.9057 0.0564575 24.0606 0.0564575 49.7141C0.0564557 75.3676 14.201 74.4578 14.201 74.4578H22.6426V62.5536C22.6426 62.5536 22.1875 48.3536 36.5613 48.3536H60.5308C60.5308 48.3536 73.9977 48.5722 73.9977 35.2873V13.3212C73.9977 13.3212 76.0424 0.0281982 49.5765 0.0281982ZM36.2507 7.70925C38.6551 7.70924 40.5985 9.66024 40.5985 12.0741C40.5985 14.488 38.6551 16.439 36.2507 16.439C33.8462 16.439 31.9029 14.488 31.9029 12.0741C31.9029 9.66024 33.8462 7.70925 36.2507 7.70925Z" fill="black"/>
<path d="M50.2957 99.6574C75.6209 99.6574 74.0394 88.6318 74.0394 88.6318L74.0112 77.2095H49.844V73.7799H83.6103C83.6103 73.7799 99.8158 75.625 99.8158 49.9715C99.8158 24.318 85.6712 25.2277 85.6712 25.2277H77.2297V37.132C77.2297 37.132 77.6847 51.332 63.311 51.332H39.3415C39.3415 51.332 25.8745 51.1134 25.8745 64.3983V86.3644C25.8745 86.3644 23.8299 99.6574 50.2957 99.6574ZM63.6216 91.9763C61.2171 91.9763 59.2737 90.0254 59.2737 87.6115C59.2737 85.1976 61.2171 83.2466 63.6216 83.2466C66.026 83.2466 67.9694 85.1976 67.9694 87.6115C67.9694 90.0254 66.026 91.9763 63.6216 91.9763Z" fill="black"/>
</svg>
