<svg width="100" height="100" viewBox="0 0 100 100" fill="none" xmlns="http://www.w3.org/2000/svg">
<g clip-path="url(#clip0)">
<path d="M99.8906 27.5125C99.8898 25.5269 99.6777 23.547 99.2578 21.6063C98.4766 17.6172 96.4016 13.961 93.3203 11.1375C91.7409 9.66098 89.9189 8.46749 87.9344 7.60942C85.9922 6.67192 83.9188 6.04692 81.7781 5.70317C79.6625 5.31255 77.325 5.31255 75.2109 5.12817H22.9453C21.3173 5.15617 19.6927 5.28716 18.0812 5.52036C16.4766 5.69849 14.9047 6.08286 13.3937 6.67036L11.9094 7.24536C10.4936 7.95426 9.14211 8.78499 7.87031 9.72817C7.45781 10.1188 7.01875 10.3032 6.60469 10.6688C5.03602 12.0068 3.72309 13.6183 2.72969 15.425C1.70312 17.2188 0.984375 19.1532 0.632812 21.1625C0.318206 23.1099 0.106973 25.0725 0 27.0422L0 72.5938C0.000801788 74.5794 0.212934 76.5593 0.632812 78.5C1.41406 82.4891 3.48906 86.1454 6.57031 88.9688C8.13296 90.4 9.92582 91.5574 11.8734 92.3922C13.8156 93.3297 15.8891 93.9547 18.0297 94.2985C20.1453 94.6891 22.4828 94.6891 24.5969 94.8735H75.325C77.5265 94.8711 79.7237 94.6787 81.8922 94.2985C83.9922 93.9547 86.0297 93.3188 87.9391 92.4172C89.9154 91.5265 91.7636 90.3751 93.4344 88.9938C94.9837 87.6512 96.2779 86.04 97.2547 84.2375C98.3016 82.4594 99.0172 80.5235 99.3703 78.5141C99.6859 76.558 99.8971 74.5864 100.003 72.6079V27.5297L99.8906 27.5125Z" fill="black"/>
<path d="M66.7766 74.5516C57.8734 79.1766 45.6437 79.6453 33.3609 74.9172C23.7781 71.25 15.5734 64.9328 9.8125 56.7812C12.5 58.6875 15.425 60.2687 18.5234 61.4844C31.2187 66.7109 43.9422 66.475 52.8734 61.4844C41.0844 52.9531 30.4672 43.05 21.2719 32.0062C19.6876 30.4123 18.2698 28.6611 17.0406 26.7797C26.6969 34.4937 36.9688 41.4828 47.7641 47.6859C39.9016 40.1047 32.6703 31.9516 26.1391 23.3031C37.0312 33.2453 49.0047 42.0578 61.8594 49.5937L63.2344 50.325C63.6061 49.4733 63.9275 48.6004 64.1969 47.7109C67.1656 37.9891 63.7844 26.9359 56.3656 17.7891C73.5406 27.1172 83.7094 44.6531 79.475 59.3406C79.475 59.7312 79.2562 60.125 79.1156 60.5172L79.2531 60.6734C87.7438 70.2125 85.4094 80.2984 84.3375 78.3922C79.6938 70.4234 71.0922 72.8766 66.7781 74.5484L66.7766 74.5516Z" fill="#FEFEFE"/>
</g>
<defs>
<clipPath id="clip0">
<rect width="100" height="100" fill="white"/>
</clipPath>
</defs>
</svg>
